<?xml version="1.0" encoding="utf-8"?>
<!-- Generator: Adobe Illustrator 17.0.0, SVG Export Plug-In . SVG Version: 6.00 Build 0)  -->
<!DOCTYPE svg PUBLIC "-//W3C//DTD SVG 1.1//EN" "http://www.w3.org/Graphics/SVG/1.1/DTD/svg11.dtd">
<svg version="1.1" id="Capa_1" xmlns="http://www.w3.org/2000/svg" xmlns:xlink="http://www.w3.org/1999/xlink" x="0px" y="0px"
	 width="944.125px" height="185.114px" viewBox="511.154 -32.13 944.125 185.114"
	 enable-background="new 511.154 -32.13 944.125 185.114" xml:space="preserve">
<rect x="511.154" y="-32.13" display="none" fill="#1F1F1F" width="978.692" height="192.613"/>
<path fill="#0EA47A" d="M1366.285,152.984c-49.694-0.163-99.437-0.201-149.227-0.115c-3.279,0-5.893-0.578-7.843-1.735
	c-4.492-2.676-6.739-6.648-6.739-11.915c-0.01-52.81-0.01-105.621,0-158.431c0-3.078,1.692-6.146,5.076-9.205
	c2.953-2.457,5.826-3.685,8.617-3.685c72.549-0.01,145.093-0.019,217.632-0.029c6.825,0,11.475,0.602,13.951,1.807
	c5.018,2.418,7.527,7.078,7.527,13.979c-0.038,50.698-0.048,101.396-0.029,152.094c0.014,10.094-3.269,17.134-14.108,17.105
	C1416.223,152.779,1391.271,152.822,1366.285,152.984z M1342.671,23.013c0-0.356,0.289-0.645,0.645-0.645l0,0h75.058
	c0.356,0,0.645-0.289,0.645-0.645V-3.512c0-0.356-0.289-0.645-0.645-0.645h-177.845c-0.356,0-0.645,0.289-0.645,0.645c0,0,0,0,0,0
	l-0.014,25.234c0,0.356,0.289,0.645,0.645,0.645l75.058,0.014c0.356,0,0.645,0.289,0.645,0.645c0,0,0,0,0,0v100.851
	c0,0.356,0.289,0.645,0.645,0.645l25.191,0.014c0.356,0,0.645-0.289,0.645-0.645v0L1342.671,23.013z"/>
<path fill="#FFFFFF" d="M564.144,16.586v41.079c0,0.382-0.309,0.691-0.691,0.691l0,0l-9.677,0.02c-0.382,0-0.691-0.309-0.691-0.691
	l0,0V16.586c0-0.382-0.309-0.691-0.691-0.691h-30.454c-0.382,0-0.691-0.309-0.691-0.691v0V5.23c0-0.382,0.31-0.691,0.691-0.691h0
	h73.251c0.382,0,0.691,0.309,0.691,0.691l0.02,9.974c0,0.382-0.31,0.691-0.691,0.691h0h-30.375
	C564.453,15.895,564.144,16.205,564.144,16.586L564.144,16.586z"/>
<path fill="#FFFFFF" d="M675.216,5.171l10.033-0.474c0.75-0.026,1.132,0.336,1.146,1.086l0.257,11.494
	c0.099,14.259,0.849,28.42-13.667,35.312c-16.965,8.097-48.15,9.5-58.202-9.875c-4.7-9.065-3.061-26.346-3.12-37.11
	c0-0.342,0.171-0.52,0.513-0.533L622.05,4.5c0.461-0.013,0.691,0.211,0.691,0.672c0.066,8.137,0.138,16.392,0.217,24.766
	c0.079,8.69,5.55,13.43,13.41,15.424c11.909,3.002,26.188,3.041,35.767-5.471C677.902,34.776,675.433,12.873,675.216,5.171z"/>
<path fill="#FFFFFF" d="M734.563,58.377h-31.599c-0.305,0-0.553-0.248-0.553-0.553v-9.816c0-0.284,0.23-0.514,0.513-0.514l0,0
	l58.281-0.02c3.634,0,5.24-1.804,4.819-5.411l-0.099-1.007c-0.248-2.132-2.05-3.748-4.207-3.772
	c-14.72-0.132-29.045-0.217-42.975-0.257c-5.806-0.013-10.645-2.699-14.516-8.058c-3.594-10.191-1.824-17.446,5.313-21.764
	c2.923-1.764,7.268-2.653,13.035-2.666c18.104-0.013,36.076-0.013,53.917,0c0.284,0,0.513,0.239,0.513,0.533v0l0.059,10.29
	c0,0.294-0.239,0.533-0.533,0.533h-59.624c-1.863-0.002-3.401,1.457-3.496,3.318l-0.079,1.303c-0.171,3.344,1.422,5.049,4.779,5.115
	c13.285,0.237,26.274,0.467,38.966,0.691c4.885,0.079,8.506,0.665,10.862,1.758c12.482,5.806,11.929,24.016-0.968,28.953
	C759.112,60.036,743.312,58.416,734.563,58.377z"/>
<path fill="#FFFFFF" d="M845.438,19.529l-0.079,0.889c-0.29,3.41,1.277,5.148,4.7,5.214c13.324,0.237,26.05,0.461,38.176,0.672
	c5.78,0.105,10.033,0.902,12.758,2.39c14.555,7.939,8.038,29.545-8.453,29.605c-19.407,0.079-38.643,0.092-57.708,0.039
	c-0.284,0-0.514-0.23-0.514-0.513l0.02-9.855c0-0.262,0.203-0.474,0.454-0.474l0,0h58.34c2.672,0.002,4.841-2.153,4.844-4.815
	c0-0.074-0.002-0.148-0.005-0.221l-0.039-1.323c-0.084-2.148-1.849-3.852-4.009-3.871c-12.324-0.105-24.299-0.171-35.925-0.198
	c-6.873-0.026-11.731-0.685-14.575-1.975c-15.819-7.13-10.467-30.335,8.236-30.474c19.039-0.118,37.965-0.132,56.78-0.039
	c0.395,0,0.593,0.204,0.593,0.612l0.02,10.112c0,0.395-0.204,0.592-0.612,0.592h-59.032
	C847.336,15.897,845.612,17.476,845.438,19.529z"/>
<path fill="#FFFFFF" d="M943.811,55.552c-23.482-7.762-19.078-31.106-19.118-49.907c0-0.355,0.178-0.546,0.533-0.573l9.677-0.573
	c0.5-0.026,0.757,0.211,0.77,0.711c0.119,7.702,0.204,15.708,0.257,24.016c0.079,16.412,17.261,18.347,31.659,17.696
	c8.433-0.375,20.915-5.253,20.915-15.227c-0.013-8.901-0.059-17.472-0.138-25.714c-0.001-0.498,0.382-0.907,0.869-0.928l9.381-0.533
	c0.5-0.026,0.757,0.217,0.77,0.731c0.119,6.833,0.316,13.989,0.592,21.468C1001.124,56.974,965.318,62.662,943.811,55.552z"/>
<path fill="#FFFFFF" d="M1167.614,42.3c0.109-2.67-1.976-4.923-4.657-5.032c-0.054-0.002-0.108-0.003-0.162-0.004
	c-12.219-0.092-23.976-0.158-35.273-0.198c-6.807-0.026-11.619-0.685-14.437-1.975c-15.74-7.13-10.487-30.316,8.216-30.454
	c19.078-0.145,37.979-0.165,56.701-0.059c0.458,0,0.829,0.371,0.829,0.829v9.539c0,0.632-0.316,0.948-0.948,0.948h-58.953
	c-2.064-0.001-3.749,1.641-3.792,3.693l-0.02,1.007c-0.066,3.318,1.56,5.003,4.878,5.056c13.035,0.197,25.773,0.415,38.216,0.652
	c5.504,0.105,9.539,0.81,12.107,2.113c14.318,7.248,8.828,29.763-6.715,29.861c-19.776,0.105-39.42,0.125-58.933,0.059
	c-0.395,0-0.593-0.204-0.593-0.612l-0.059-9.322c0-0.592,0.296-0.889,0.889-0.889l58.656-0.04c2.165-0.009,3.935-1.727,4.009-3.891
	L1167.614,42.3z"/>
<path fill="#FFFFFF" d="M1086.818,33.176c5.589,8.137,3.041,20.224-6.182,24.134c-2.251,0.948-6.254,1.442-12.008,1.481
	c-17.419,0.118-34.852,0.125-52.297,0.02c-0.764-0.013-1.145-0.402-1.145-1.165l-0.04-51.547c0-0.685,0.342-1.027,1.027-1.027
	c16.958-0.079,33.838-0.086,50.638-0.02c7.676,0.026,13.061,1.034,16.155,3.022c7.643,4.918,8.808,15.01,3.792,23.384
	C1086.416,32.037,1086.436,32.61,1086.818,33.176z M1026.246,16.883v8.927c0,0.262,0.212,0.474,0.474,0.474h47.182
	c2.694,0,4.878-1.733,4.878-3.871V20.28c0-2.138-2.184-3.871-4.878-3.871l0,0h-47.182
	C1026.458,16.409,1026.246,16.621,1026.246,16.883z M1078.488,40.035c0.002-1.287-1.039-2.332-2.326-2.334c0,0,0,0,0,0
	l-47.715-0.083c-1.287-0.002-2.332,1.039-2.335,2.326c0,0,0,0,0,0l-0.009,5.174c-0.002,1.287,1.039,2.332,2.326,2.334c0,0,0,0,0,0
	l47.715,0.083c1.287,0.002,2.332-1.039,2.335-2.326c0,0,0,0,0,0L1078.488,40.035z"/>
<g display="none">
	<rect x="316.833" y="54.5" display="inline" fill="#1F1F1F" width="104.333" height="81"/>
	<rect x="320.167" y="58.833" display="inline" fill="#0EA47A" width="27.667" height="22.333"/>
	<rect x="354.5" y="58.833" display="inline" fill="#FFFFFF" width="27.667" height="22.333"/>
	<rect x="389.5" y="58.833" display="inline" fill="#2F2F2F" width="27.667" height="22.333"/>
</g>
<text transform="matrix(1 0 0 1 532.432 115.092)" fill="#0EA47A" font-family="'MyanmarText-Bold'" font-size="37">SEGUIDORES PARA REDES SOCIALES</text>
</svg>
